<?xml version="1.0" standalone="no"?>
<!DOCTYPE svg PUBLIC "-//W3C//DTD SVG 20010904//EN"
 "http://www.w3.org/TR/2001/REC-SVG-20010904/DTD/svg10.dtd">
<svg version="1.0" xmlns="http://www.w3.org/2000/svg"
 width="285.000000pt" height="270.000000pt" viewBox="0 0 285.000000 270.000000"
 preserveAspectRatio="xMidYMid meet">

<g transform="translate(0.000000,270.000000) scale(0.100000,-0.100000)"
fill="#000000" stroke="none">
<path d="M1060 2441 c-5 -11 -10 -29 -10 -41 0 -12 -11 -35 -25 -52 -14 -16
-25 -37 -25 -47 0 -27 -9 -30 -38 -15 -15 8 -49 14 -76 14 -94 0 -178 -63
-211 -159 -20 -60 -19 -100 5 -164 35 -93 112 -147 211 -147 50 0 51 -1 36
-18 -12 -13 -17 -37 -17 -81 0 -54 -2 -62 -17 -59 -13 2 -19 16 -23 48 -4 37
-9 45 -25 45 -16 0 -21 -8 -23 -38 -3 -33 -11 -44 -62 -84 -88 -68 -117 -145
-86 -226 14 -37 16 -79 14 -268 l-3 -224 -63 -3 c-66 -3 -86 -18 -62 -47 11
-13 120 -15 873 -13 795 3 861 4 870 20 9 13 7 21 -6 36 -15 16 -17 46 -17
259 0 202 2 243 15 253 17 14 21 109 5 112 -30 4 -35 0 -40 -26 -6 -38 -24
-38 -30 0 -7 41 -43 41 -50 -1 -7 -38 -23 -38 -30 1 -7 41 -43 41 -50 -1 -7
-38 -23 -38 -30 1 -5 26 -10 30 -39 26 -5 -1 -11 -13 -13 -27 -4 -36 -22 -36
-28 0 -8 47 -37 38 -54 -18 -3 -10 -10 -15 -16 -12 -6 4 -10 56 -10 125 0 95
-3 119 -15 124 -12 4 -15 28 -15 129 0 111 -2 126 -20 142 -16 15 -20 31 -20
85 0 48 -4 69 -14 73 -22 9 -68 137 -75 207 -6 61 -8 65 -31 65 -23 0 -25 -4
-30 -60 -7 -71 -45 -183 -71 -207 -15 -13 -19 -31 -19 -86 0 -53 -4 -71 -15
-76 -12 -4 -15 -29 -15 -133 0 -117 -2 -129 -20 -141 -19 -11 -20 -25 -22
-324 l-3 -313 -23 -3 -23 -4 5 159 c3 87 8 187 11 223 6 58 4 69 -17 100 -13
19 -47 53 -76 74 -47 35 -52 42 -52 78 0 25 -5 41 -15 44 -24 9 -45 -15 -45
-51 0 -18 -7 -38 -15 -45 -13 -11 -15 -3 -15 58 0 53 -4 73 -15 79 -10 6 -19
38 -27 92 -8 62 -16 85 -28 88 -11 3 -22 35 -39 109 -21 95 -22 107 -8 122 36
40 28 120 -14 143 -14 7 -19 21 -19 48 0 26 -5 41 -16 45 -22 8 -22 8 -34 -13z
m-103 -222 c24 -12 48 -30 54 -41 19 -35 -10 -188 -35 -188 -17 0 -26 -22 -26
-61 0 -34 -27 -45 -90 -36 -156 21 -192 252 -50 325 55 28 92 28 147 1z m193
-301 c0 -5 -31 -8 -70 -8 -38 0 -70 3 -70 8 0 4 32 7 70 7 39 0 70 -3 70 -7z
m598 -76 c4 -28 -24 -40 -45 -19 -14 13 -14 19 -3 32 18 22 44 15 48 -13z
m-578 -12 c0 -6 -35 -10 -85 -10 -50 0 -85 4 -85 10 0 6 35 10 85 10 50 0 85
-4 85 -10z m-290 -230 c29 -23 25 -24 -19 -9 -17 6 -31 15 -31 20 0 15 23 10
50 -11z m454 -27 c4 -9 9 -43 13 -75 l6 -60 -29 4 c-35 4 -39 20 -24 93 12 56
23 68 34 38z m-536 -22 c29 -20 76 -36 135 -46 34 -5 38 -9 35 -33 -3 -23 -7
-27 -33 -24 -27 3 -149 56 -184 81 -12 8 -12 12 -2 25 17 20 17 20 49 -3z
m434 -54 c-3 -38 -8 -57 -15 -54 -19 6 -20 64 -1 92 9 14 17 24 18 23 1 -2 0
-29 -2 -61z m208 -18 c0 -28 -4 -39 -15 -39 -11 0 -15 12 -15 44 0 24 -3 53
-6 63 -4 14 -1 13 15 -6 14 -15 21 -37 21 -62z m-684 -36 c-8 -8 -36 5 -36 17
0 7 6 7 21 0 11 -7 18 -14 15 -17z"/>
<path d="M568 799 c-24 -13 -23 -36 1 -49 14 -7 296 -9 872 -8 782 3 853 4
862 20 8 12 7 21 -2 32 -12 14 -100 16 -865 16 -559 -1 -857 -4 -868 -11z"/>
<path d="M770 430 c0 -123 1 -130 20 -130 19 0 20 7 20 130 0 123 -1 130 -20
130 -19 0 -20 -7 -20 -130z"/>
<path d="M860 430 c0 -123 1 -130 20 -130 19 0 20 7 20 130 0 123 -1 130 -20
130 -19 0 -20 -7 -20 -130z"/>
<path d="M2210 540 c0 -15 7 -20 25 -20 18 0 25 5 25 20 0 15 -7 20 -25 20
-18 0 -25 -5 -25 -20z"/>
<path d="M280 425 c0 -117 1 -125 19 -125 17 0 20 8 23 53 l3 52 68 3 67 3 0
-56 c0 -48 2 -55 20 -55 19 0 20 7 20 125 0 118 -1 125 -20 125 -17 0 -20 -7
-20 -50 l0 -50 -70 0 -70 0 0 50 c0 43 -3 50 -20 50 -19 0 -20 -7 -20 -125z"/>
<path d="M1370 425 l0 -125 25 0 c23 0 25 3 25 50 l0 50 36 0 c33 0 36 -3 56
-50 17 -40 25 -50 44 -50 13 0 24 2 24 5 0 16 -44 95 -53 95 -5 0 2 11 17 25
32 29 35 76 6 105 -17 17 -33 20 -100 20 l-80 0 0 -125z m150 76 c20 -38 -12
-71 -69 -71 -30 0 -31 1 -31 45 l0 45 45 0 c34 0 47 -5 55 -19z"/>
<path d="M2540 503 c0 -73 11 -123 26 -123 10 0 14 13 14 39 0 21 3 59 6 85 7
45 6 46 -20 46 -24 0 -26 -3 -26 -47z"/>
<path d="M583 458 c-11 -13 -24 -33 -28 -46 -10 -33 12 -87 41 -101 29 -13 93
-14 113 -2 25 16 2 29 -42 24 -38 -5 -47 -2 -60 17 -9 13 -14 27 -11 32 3 4
32 8 65 8 56 0 59 1 59 25 0 61 -94 90 -137 43z m91 -17 c24 -27 12 -41 -35
-41 -32 0 -39 3 -39 20 0 18 24 39 46 40 6 0 19 -9 28 -19z"/>
<path d="M979 461 c-20 -16 -24 -29 -24 -71 0 -42 4 -55 24 -71 34 -28 101
-26 129 4 34 36 27 124 -12 149 -22 15 -94 8 -117 -11z m99 -23 c16 -16 16
-80 0 -96 -29 -29 -88 3 -88 48 0 45 59 77 88 48z"/>
<path d="M1630 409 c0 -91 10 -109 58 -109 21 0 43 5 50 12 9 9 12 9 12 0 0
-7 9 -12 20 -12 19 0 20 7 20 90 0 83 -1 90 -20 90 -18 0 -20 -7 -20 -58 0
-68 -15 -95 -51 -90 -23 3 -24 7 -27 76 -3 64 -5 72 -22 72 -18 0 -20 -7 -20
-71z"/>
<path d="M1857 462 c-10 -10 -17 -26 -17 -35 0 -23 28 -47 54 -47 12 0 31 -7
42 -15 19 -15 19 -15 0 -30 -11 -8 -28 -13 -38 -10 -10 3 -27 8 -38 11 -13 3
-20 1 -20 -9 0 -19 22 -27 75 -27 34 0 47 5 59 22 9 12 16 28 16 35 0 19 -30
43 -54 43 -12 0 -31 6 -42 14 -18 14 -18 16 -2 32 14 14 22 15 49 5 36 -12 44
-9 36 14 -9 23 -99 21 -120 -3z"/>
<path d="M2046 464 c-10 -9 -16 -28 -14 -43 2 -22 11 -28 51 -40 33 -10 47
-20 47 -32 0 -23 -31 -32 -65 -19 -31 12 -40 8 -32 -15 5 -11 20 -15 56 -15
56 0 81 17 81 56 0 25 -17 37 -72 48 -19 4 -28 13 -28 26 0 24 30 33 64 20 24
-9 27 -8 24 7 -5 26 -89 31 -112 7z"/>
<path d="M2220 390 c0 -83 1 -90 20 -90 19 0 20 7 20 90 0 83 -1 90 -20 90
-19 0 -20 -7 -20 -90z"/>
<path d="M2338 470 c-9 -6 -22 -26 -28 -45 -14 -42 1 -100 30 -115 24 -13 66
-13 91 0 13 7 19 7 19 0 0 -5 9 -10 20 -10 19 0 20 7 20 90 0 83 -1 90 -20 90
-11 0 -20 -5 -20 -10 0 -7 -6 -7 -19 0 -24 13 -71 13 -93 0z m103 -47 c16 -43
0 -87 -34 -91 -39 -5 -57 14 -57 57 0 44 14 61 52 61 22 0 31 -6 39 -27z"/>
<path d="M1170 325 c0 -14 5 -25 10 -25 6 0 8 -11 4 -27 -7 -25 -6 -27 9 -14
11 8 17 28 17 52 0 32 -3 39 -20 39 -15 0 -20 -7 -20 -25z"/>
<path d="M2540 326 c0 -21 5 -26 26 -26 21 0 25 4 22 23 -2 14 -11 23 -25 25
-19 3 -23 -1 -23 -22z"/>
</g>
</svg>
